<svg width="18" height="20" viewBox="0 0 18 20" fill="none" xmlns="http://www.w3.org/2000/svg">
<path fill-rule="evenodd" clip-rule="evenodd" d="M7.796 0.243997C9.653 -0.174003 11 1.422 11 3V17C11 18.578 9.653 20.174 7.796 19.756C3.334 18.752 0 14.766 0 10C0 5.234 3.334 1.248 7.796 0.243997ZM13.293 6.293C13.4805 6.10553 13.7348 6.00021 14 6.00021C14.2652 6.00021 14.5195 6.10553 14.707 6.293L17.707 9.293C17.8945 9.48053 17.9998 9.73483 17.9998 10C17.9998 10.2652 17.8945 10.5195 17.707 10.707L14.707 13.707C14.5184 13.8892 14.2658 13.9899 14.0036 13.9877C13.7414 13.9854 13.4906 13.8802 13.3052 13.6948C13.1198 13.5094 13.0146 13.2586 13.0123 12.9964C13.01 12.7342 13.1108 12.4816 13.293 12.293L14.586 11H6C5.73478 11 5.48043 10.8946 5.29289 10.7071C5.10536 10.5196 5 10.2652 5 10C5 9.73478 5.10536 9.48043 5.29289 9.29289C5.48043 9.10535 5.73478 9 6 9H14.586L13.293 7.707C13.1055 7.51947 13.0002 7.26516 13.0002 7C13.0002 6.73483 13.1055 6.48052 13.293 6.293Z" fill="#F24E1E"/>
</svg>
