<svg width="1322" height="130" viewBox="0 0 1322 130" fill="none" xmlns="http://www.w3.org/2000/svg">
<path d="M43.6841 130V20.85H0.764048V0.499991H110.654V20.85H67.7341V130H43.6841ZM120.534 130L178.809 0.499991H202.489L260.949 130H235.789L185.654 13.265H195.274L145.324 130H120.534ZM147.359 100.03L153.834 81.16H223.764L230.239 100.03H147.359ZM315.529 99.475L314.234 70.985L382.129 0.499991H409.139L352.714 60.44L339.394 75.055L315.529 99.475ZM294.069 130V0.499991H318.119V130H294.069ZM384.349 130L334.769 70.985L350.679 53.41L412.469 130H384.349ZM467.694 54.335H532.074V74.13H467.694V54.335ZM469.544 109.835H542.619V130H445.494V0.499991H540.029V20.665H469.544V109.835ZM586.079 130V0.499991H605.874L662.484 95.035H652.124L707.809 0.499991H727.604L727.789 130H705.034L704.849 36.205H709.659L662.299 115.2H651.569L603.469 36.205H609.019V130H586.079ZM811.239 130V78.755L816.604 93.555L760.364 0.499991H786.079L831.219 75.425H816.789L862.299 0.499991H885.979L829.739 93.555L835.289 78.755V130H811.239ZM942.661 130V20.85H899.741V0.499991H1009.63V20.85H966.711V130H942.661ZM1074.16 130V78.755L1079.53 93.555L1023.29 0.499991H1049L1094.14 75.425H1079.71L1125.22 0.499991H1148.9L1092.66 93.555L1098.21 78.755V130H1074.16ZM1179.68 130V0.499991H1199.47L1256.08 95.035H1245.72L1301.41 0.499991H1321.2L1321.39 130H1298.63L1298.45 36.205H1303.26L1255.9 115.2H1245.17L1197.07 36.205H1202.62V130H1179.68Z" fill="black"/>
</svg>
